<svg width="528" height="150" viewBox="0 0 528 150" fill="none" xmlns="http://www.w3.org/2000/svg">
<path d="M207.404 107C201.792 107 196.757 105.617 192.298 102.851C187.916 100.086 184.419 96.3214 181.805 91.5583C179.268 86.7951 178 81.4558 178 75.5403C178 69.6248 179.268 64.2855 181.805 59.5224C184.419 54.7593 187.916 50.9949 192.298 48.2292C196.757 45.4635 201.792 44.0807 207.404 44.0807C212.785 44.0807 217.666 45.1946 222.048 47.4225C226.506 49.5736 229.889 52.5314 232.195 56.2958L225.622 64.3624C224.392 62.5954 222.816 60.9821 220.895 59.5224C218.973 58.0627 216.936 56.9104 214.783 56.0653C212.631 55.2202 210.555 54.7977 208.557 54.7977C204.867 54.7977 201.561 55.7196 198.64 57.5634C195.796 59.3303 193.528 61.7887 191.837 64.9385C190.146 68.0883 189.3 71.6223 189.3 75.5403C189.3 79.4584 190.184 82.9923 191.952 86.1421C193.72 89.2151 196.065 91.6735 198.986 93.5173C201.907 95.3611 205.136 96.283 208.672 96.283C210.747 96.283 212.746 95.9373 214.668 95.2458C216.667 94.5544 218.588 93.5173 220.433 92.1344C222.278 90.7516 224.008 89.0615 225.622 87.064L232.195 95.1306C229.735 98.5877 226.199 101.43 221.586 103.658C217.051 105.886 212.323 107 207.404 107Z" fill="white"/>
<path d="M245.358 105.848V45.3483H257.235V105.848H245.358ZM251.123 31.9808C248.586 31.9808 246.626 31.3278 245.243 30.0218C243.859 28.7157 243.167 26.872 243.167 24.4904C243.167 22.2625 243.859 20.4571 245.243 19.0743C246.703 17.6914 248.663 17 251.123 17C253.66 17 255.62 17.653 257.004 18.959C258.388 20.265 259.08 22.1088 259.08 24.4904C259.08 26.7183 258.349 28.5237 256.889 29.9065C255.505 31.2894 253.583 31.9808 251.123 31.9808Z" fill="white"/>
<path d="M303.741 107C297.514 107 291.979 105.694 287.136 103.082C282.37 100.393 278.604 96.7439 275.836 92.1344C273.146 87.525 271.8 82.2241 271.8 76.2318C271.8 71.4686 272.569 67.128 274.106 63.21C275.644 59.2919 277.758 55.9117 280.448 53.0691C283.216 50.1498 286.483 47.9219 290.25 46.3854C294.093 44.7721 298.244 43.9654 302.703 43.9654C306.623 43.9654 310.275 44.7337 313.657 46.2702C317.039 47.7298 319.961 49.7657 322.421 52.3777C324.957 54.9898 326.879 58.1012 328.186 61.7119C329.57 65.2458 330.223 69.1255 330.146 73.3508L330.031 78.4213H280.564L277.912 68.9718H319.768L318.039 70.9309V68.1652C317.808 65.63 316.963 63.3636 315.502 61.3662C314.041 59.3688 312.197 57.7939 309.967 56.6415C307.738 55.4891 305.317 54.9129 302.703 54.9129C298.552 54.9129 295.054 55.7196 292.21 57.3329C289.366 58.8694 287.213 61.1741 285.753 64.2471C284.292 67.2433 283.562 70.9693 283.562 75.4251C283.562 79.6505 284.446 83.338 286.214 86.4878C287.982 89.5608 290.48 91.9424 293.709 93.6325C296.937 95.3227 300.666 96.1677 304.894 96.1677C307.892 96.1677 310.659 95.6684 313.196 94.6697C315.81 93.6709 318.615 91.8656 321.613 89.2535L327.609 97.6658C325.764 99.5096 323.497 101.123 320.806 102.506C318.193 103.889 315.387 105.003 312.389 105.848C309.468 106.616 306.585 107 303.741 107Z" fill="white"/>
<path d="M343.053 105.848V45.3483H354.93V57.7939L352.855 59.1767C353.623 56.4878 355.122 54.0295 357.352 51.8015C359.581 49.4968 362.233 47.653 365.308 46.2702C368.383 44.8105 371.535 44.0807 374.763 44.0807C379.375 44.0807 383.219 45.0026 386.294 46.8464C389.369 48.6133 391.675 51.3406 393.212 55.0282C394.75 58.7158 395.519 63.3636 395.519 68.9718V105.848H383.642V69.7785C383.642 66.3214 383.181 63.4789 382.258 61.251C381.336 58.9462 379.914 57.2945 377.992 56.2958C376.07 55.2202 373.687 54.7593 370.843 54.9129C368.537 54.9129 366.423 55.2971 364.501 56.0653C362.579 56.7567 360.888 57.7554 359.427 59.0615C358.043 60.3675 356.929 61.904 356.083 63.6709C355.315 65.3611 354.93 67.2049 354.93 69.2023V105.848H349.049C348.05 105.848 347.051 105.848 346.051 105.848C345.052 105.848 344.053 105.848 343.053 105.848Z" fill="white"/>
<path d="M437.344 107C431.732 107 426.697 105.617 422.238 102.851C417.857 100.086 414.359 96.3214 411.745 91.5583C409.209 86.7951 407.94 81.4558 407.94 75.5403C407.94 69.6248 409.209 64.2855 411.745 59.5224C414.359 54.7593 417.857 50.9949 422.238 48.2292C426.697 45.4635 431.732 44.0807 437.344 44.0807C442.725 44.0807 447.606 45.1946 451.988 47.4225C456.447 49.5736 459.829 52.5314 462.135 56.2958L455.562 64.3624C454.333 62.5954 452.757 60.9821 450.835 59.5224C448.913 58.0627 446.876 56.9104 444.724 56.0653C442.571 55.2202 440.496 54.7977 438.497 54.7977C434.807 54.7977 431.502 55.7196 428.58 57.5634C425.736 59.3303 423.468 61.7887 421.777 64.9385C420.086 68.0883 419.24 71.6223 419.24 75.5403C419.24 79.4584 420.125 82.9923 421.893 86.1421C423.661 89.2151 426.005 91.6735 428.926 93.5173C431.848 95.3611 435.076 96.283 438.612 96.283C440.688 96.283 442.686 95.9373 444.608 95.2458C446.607 94.5544 448.529 93.5173 450.374 92.1344C452.219 90.7516 453.948 89.0615 455.562 87.064L462.135 95.1306C459.675 98.5877 456.139 101.43 451.527 103.658C446.991 105.886 442.264 107 437.344 107Z" fill="white"/>
<path d="M501.588 107C495.362 107 489.827 105.694 484.984 103.082C480.218 100.393 476.451 96.7439 473.684 92.1344C470.993 87.525 469.648 82.2241 469.648 76.2318C469.648 71.4686 470.417 67.128 471.954 63.21C473.492 59.2919 475.606 55.9117 478.296 53.0691C481.064 50.1498 484.331 47.9219 488.097 46.3854C491.941 44.7721 496.092 43.9654 500.551 43.9654C504.471 43.9654 508.123 44.7337 511.505 46.2702C514.887 47.7298 517.808 49.7657 520.268 52.3777C522.805 54.9898 524.727 58.1012 526.034 61.7119C527.417 65.2458 528.071 69.1255 527.994 73.3508L527.879 78.4213H478.411L475.759 68.9718H517.616L515.887 70.9309V68.1652C515.656 65.63 514.81 63.3636 513.35 61.3662C511.889 59.3688 510.044 57.7939 507.815 56.6415C505.586 55.4891 503.164 54.9129 500.551 54.9129C496.4 54.9129 492.902 55.7196 490.058 57.3329C487.213 58.8694 485.061 61.1741 483.6 64.2471C482.14 67.2433 481.41 70.9693 481.41 75.4251C481.41 79.6505 482.294 83.338 484.062 86.4878C485.83 89.5608 488.328 91.9424 491.557 93.6325C494.785 95.3227 498.514 96.1677 502.741 96.1677C505.74 96.1677 508.507 95.6684 511.044 94.6697C513.657 93.6709 516.463 91.8656 519.461 89.2535L525.457 97.6658C523.612 99.5096 521.344 101.123 518.654 102.506C516.04 103.889 513.234 105.003 510.237 105.848C507.315 106.616 504.433 107 501.588 107Z" fill="white"/>
<path d="M127.991 128.029L105.901 105.939L62.834 149.007C66.7845 149.649 70.8321 150 74.9618 150C95.6703 150 114.422 141.606 127.991 128.029Z" fill="#60D394"/>
<path d="M62.8348 116.999C44.5982 111.727 31.2457 94.9393 31.2457 75C31.2457 50.8414 50.8339 31.2531 74.9926 31.2531C87.0756 31.2531 98.0086 36.152 105.925 44.068L128.022 21.9705C114.453 8.39391 95.7085 0 75 0C33.5756 0 0 33.5756 0 75C0 112.28 27.2055 143.189 62.8348 148.999V116.999Z" fill="white"/>
</svg>
