<svg width="93" height="28" viewBox="0 0 93 28" fill="none" xmlns="http://www.w3.org/2000/svg">
<g clip-path="url(#clip0_1474_103)">
<path d="M11.6704 20.8559C11.6704 23.2955 9.66752 25.281 7.2065 25.281C5.13314 25.281 3.32408 23.8487 2.86007 21.8574L0.199346 22.2882L0.146484 22.2999C0.827817 25.607 3.79984 28.0059 7.2065 28.0059C11.1829 28.0059 14.4134 24.8035 14.4134 20.8618V20.0059L11.6704 20.4484V20.8618V20.8559Z" fill="url(#paint0_linear_1474_103)"/>
<path d="M17.2969 12.0874V20.4833H20.0633V12.0874C20.0633 9.4615 21.4319 8.396 23.4994 8.396C24.2512 8.396 24.6212 8.52409 24.6212 8.52409L25.4611 6.07867C24.8561 5.93311 24.1983 5.85742 23.4994 5.85742C19.8049 5.85742 17.3027 7.8778 17.3027 12.0874H17.2969Z" fill="url(#paint1_linear_1474_103)"/>
<path d="M33.802 5.85742C29.2323 5.85742 26.0312 9.00153 26.0312 13.4731C26.0312 18.1718 29.5789 20.856 33.3321 20.856C35.8342 20.856 37.9605 19.674 38.9178 17.3683V20.4833H41.4493V13.4731C41.4493 8.91419 38.307 5.85742 33.7961 5.85742H33.802ZM33.7726 18.3174C30.8065 18.3174 28.8271 16.2388 28.8271 13.3567C28.8271 10.4746 30.8065 8.396 33.7726 8.396C36.7388 8.396 38.7181 10.4746 38.7181 13.3567C38.7181 16.2388 36.7388 18.3174 33.7726 18.3174Z" fill="url(#paint2_linear_1474_103)"/>
<path d="M51.9579 5.85742C47.5058 5.85742 44.3047 8.82685 44.3047 13.4731V26.5678H47.0711V17.9739C48.1166 19.8196 50.096 20.856 52.4219 20.856C56.1752 20.856 59.7228 18.1718 59.7228 13.444C59.7228 8.97241 56.5217 5.85742 51.9521 5.85742H51.9579ZM51.9873 18.3174C49.0505 18.3174 47.0711 16.2388 47.0711 13.3567C47.0711 10.4746 49.0505 8.396 51.9873 8.396C54.9241 8.396 56.9328 10.4746 56.9328 13.3567C56.9328 16.2388 54.9535 18.3174 51.9873 18.3174Z" fill="url(#paint3_linear_1474_103)"/>
<path d="M70.0241 5.85735C67.8979 5.85735 66.2122 6.80641 65.2254 8.5706V0H62.459V20.4774H65.2254V13.0655C65.2254 10.0087 66.9992 8.39593 69.5601 8.39593C72.121 8.39593 73.8948 9.97962 73.8948 13.0655V20.4774H76.6613V13.0655C76.6613 8.07569 73.607 5.85735 70.03 5.85735H70.0241Z" fill="url(#paint4_linear_1474_103)"/>
<path d="M0 13.3392C0 17.2809 3.23046 20.4833 7.20686 20.4833C11.1833 20.4833 14.4137 17.2809 14.4137 13.3392C14.4137 11.6681 13.8322 10.131 12.8572 8.91414H14.4372V6.19507H7.20686C3.23046 6.19507 0 9.3974 0 13.3392ZM11.6708 13.3392C11.6708 15.7788 9.66788 17.7642 7.20686 17.7642C4.74584 17.7642 2.74295 15.7788 2.74295 13.3392C2.74295 10.8996 4.74584 8.91414 7.20686 8.91414C9.66788 8.91414 11.6708 10.8996 11.6708 13.3392Z" fill="url(#paint5_linear_1474_103)"/>
<path d="M80.8379 10.2883C80.8379 10.2883 80.8668 10.265 80.8783 10.2476C80.861 10.2592 80.8494 10.2767 80.8379 10.2883Z" fill="url(#paint6_linear_1474_103)"/>
<path d="M92.5387 14.1426C92.5387 14.0961 92.5328 14.0437 92.527 13.9971C92.5211 13.9389 92.5152 13.8865 92.5035 13.8282C92.4976 13.7817 92.4917 13.7351 92.4858 13.6885C92.4741 13.6303 92.4682 13.572 92.4565 13.5196C92.4389 13.444 92.4271 13.3624 92.4036 13.2867C92.386 13.2111 92.3684 13.1354 92.3449 13.0655C92.3331 13.0247 92.3214 12.984 92.3096 12.9432C92.292 12.885 92.2744 12.8268 92.2568 12.7744C92.245 12.7394 92.2391 12.7103 92.2215 12.6812C92.198 12.6113 92.1745 12.5473 92.1452 12.4833C92.1041 12.3901 92.0629 12.2911 92.0218 12.2038C91.9748 12.1106 91.9337 12.0175 91.8867 11.9301C91.8867 11.9185 91.8809 11.9127 91.875 11.901C91.8574 11.8661 91.8339 11.8253 91.8163 11.7904C91.7869 11.7322 91.7516 11.6739 91.7164 11.6215C91.6812 11.5633 91.6459 11.5109 91.6107 11.4527C91.5754 11.4003 91.5343 11.3421 91.4991 11.2897C91.458 11.2373 91.4227 11.1849 91.3816 11.1266C90.9117 10.492 90.3126 9.94468 89.6254 9.508C89.8604 9.31586 90.0836 9.11208 90.2833 8.89083C90.3126 8.86171 90.3361 8.8326 90.3655 8.80349C90.4184 8.74527 90.4653 8.69286 90.5123 8.62882C91.1349 7.86026 91.5343 6.94032 91.6342 5.93886C91.6342 5.93304 91.6342 5.92722 91.6342 5.91557C91.6459 5.79912 91.6518 5.67685 91.6518 5.56041C91.6518 5.53712 91.6518 5.508 91.6518 5.48471C91.6518 5.48471 91.6518 5.44396 91.6518 5.42649C91.6635 2.42795 89.0028 0 85.7371 0C82.4714 0 79.8107 2.42795 79.8107 5.41485C79.8107 5.60116 79.8224 5.78748 79.8401 5.96797C79.8518 6.06113 79.8636 6.14847 79.8812 6.24163C79.8988 6.32896 79.9105 6.42212 79.934 6.50946C79.9634 6.64337 79.9987 6.77147 80.0398 6.89956C80.1044 7.11499 80.1866 7.3246 80.2806 7.52256C80.3217 7.6099 80.3628 7.69723 80.4098 7.77875C80.5449 8.02911 80.6976 8.26783 80.8679 8.4949C81.097 8.79767 81.3613 9.07714 81.655 9.33333C81.6902 9.36827 81.7255 9.39738 81.7607 9.42067C81.7901 9.44978 81.8253 9.47307 81.8547 9.49636C81.7666 9.54876 81.6844 9.60698 81.6021 9.66521C81.5845 9.67685 81.5669 9.6885 81.5493 9.70014C81.4847 9.74672 81.4201 9.7933 81.3613 9.83988C81.332 9.86317 81.2967 9.88646 81.2673 9.91557C81.2145 9.95633 81.1675 9.99708 81.1146 10.0378C81.0853 10.0611 81.0559 10.0844 81.0324 10.1077C80.9854 10.1485 80.9384 10.195 80.8914 10.2358C80.8738 10.2474 80.8621 10.2649 80.8503 10.2766C80.7328 10.3872 80.6213 10.5036 80.5097 10.6201C80.492 10.6376 80.4744 10.655 80.4568 10.6725C80.3569 10.7831 80.263 10.8937 80.1749 11.0102C80.1631 11.0218 80.1514 11.0393 80.1396 11.0509C80.122 11.0742 80.1044 11.1033 80.0868 11.1266C80.0515 11.1732 80.0221 11.2198 79.9869 11.2605C79.9517 11.313 79.9164 11.3654 79.8812 11.4178C79.8636 11.4469 79.8459 11.476 79.8283 11.5051C79.7931 11.5633 79.752 11.6215 79.7167 11.6798C79.6756 11.7555 79.6345 11.8253 79.5934 11.901C79.5464 11.9942 79.4994 12.0815 79.4583 12.1805C79.4524 12.1921 79.4465 12.2096 79.4407 12.2212C79.3878 12.3319 79.3408 12.4483 79.2997 12.5589C79.2938 12.5764 79.2879 12.5881 79.2821 12.6055C79.2527 12.6812 79.2292 12.7511 79.2057 12.8268C79.2057 12.8268 79.2057 12.8326 79.2057 12.8384C79.1822 12.9083 79.1646 12.9723 79.1411 13.0422C79.1117 13.147 79.0824 13.2576 79.0589 13.3624C79.0589 13.3741 79.0589 13.3857 79.053 13.4032C79.0413 13.4614 79.0295 13.5196 79.0178 13.5779C79.0178 13.6012 79.0119 13.6244 79.006 13.6419C79.006 13.6652 79.0001 13.6885 78.9943 13.7118C78.9943 13.7234 78.9943 13.7351 78.9943 13.7409C78.9943 13.7642 78.9884 13.7817 78.9825 13.8049C78.9767 13.8573 78.9708 13.9039 78.9649 13.9563C78.9649 13.968 78.9649 13.9796 78.9649 13.9913C78.9649 13.9913 78.9649 13.9971 78.9649 14.0029C78.9532 14.1077 78.9473 14.2125 78.9414 14.3115C78.9414 14.3697 78.9414 14.4279 78.9414 14.4862C78.9414 14.492 78.9414 14.4978 78.9414 14.5036C78.9414 14.5386 78.9414 14.5677 78.9414 14.6026C78.9414 18.0378 82.0015 20.8326 85.7606 20.8326C89.5197 20.8326 92.5798 18.0378 92.5798 14.6026C92.5798 14.4396 92.5739 14.2824 92.5622 14.1252L92.5387 14.1426ZM85.7371 2.43959C87.5286 2.43959 88.9911 3.77292 88.9911 5.41485C88.9911 5.43231 88.9911 5.4556 88.9911 5.47307C88.9793 6.17758 88.6915 6.82387 88.2275 7.3246C88.2216 7.33042 88.2158 7.33624 88.2099 7.34206C88.1511 7.40611 88.0865 7.47016 88.0161 7.5342C87.9749 7.56914 87.9338 7.60407 87.8927 7.63901C87.8575 7.66812 87.8222 7.69723 87.787 7.72052C87.7459 7.75546 87.7048 7.77875 87.6636 7.80786C87.6225 7.83697 87.5814 7.86608 87.5344 7.88937C87.4992 7.91266 87.4639 7.93595 87.4228 7.95342C87.37 7.98253 87.3171 8.01164 87.2642 8.03493C87.2173 8.05822 87.1761 8.07569 87.1292 8.09898C87.0822 8.12227 87.0352 8.13974 86.9882 8.1572C86.9471 8.17467 86.9001 8.19214 86.8531 8.20378C86.7709 8.23289 86.6828 8.25618 86.5947 8.27947C86.5535 8.29112 86.5124 8.30276 86.4654 8.30859C86.4596 8.30859 86.4478 8.30859 86.4419 8.31441C86.4008 8.32023 86.3656 8.33187 86.3245 8.3377C86.3069 8.3377 86.2951 8.34352 86.2775 8.34352C86.2305 8.34934 86.1894 8.35516 86.1424 8.36099C86.066 8.37263 85.9897 8.37263 85.9133 8.37845C85.884 8.37845 85.8487 8.37845 85.8193 8.37845H85.649C83.8928 8.3377 82.4773 7.02183 82.4773 5.40902C82.4773 3.79621 83.9339 2.43377 85.7312 2.43377L85.7371 2.43959ZM85.7371 18.4105C83.4523 18.4105 81.5904 16.7103 81.5904 14.6201C81.5904 14.5677 81.5904 14.5211 81.5904 14.4687C81.5904 14.4279 81.5904 14.3814 81.5963 14.3406C81.5963 14.3057 81.6021 14.2766 81.608 14.2416C81.608 14.2009 81.6198 14.1601 81.6198 14.1252C81.6198 14.0902 81.6315 14.0553 81.6374 14.0204C81.6433 13.9854 81.6491 13.9447 81.6609 13.9097C81.6667 13.8748 81.6785 13.8399 81.6844 13.8049C81.6902 13.77 81.702 13.7351 81.7137 13.7001C81.7255 13.6652 81.7313 13.6303 81.7431 13.5953C81.7548 13.5604 81.7666 13.5255 81.7783 13.4905C81.7901 13.4556 81.8018 13.4207 81.8136 13.3857C81.8253 13.3508 81.8371 13.3217 81.8488 13.2867C81.8606 13.2518 81.8782 13.2169 81.8958 13.1878C81.9076 13.1587 81.9252 13.1237 81.9369 13.0946C81.9545 13.0597 81.9722 13.0306 81.9898 12.9956C82.0074 12.9665 82.0192 12.9316 82.0368 12.9025C82.0544 12.8734 82.072 12.8384 82.0896 12.8093C82.1073 12.7802 82.1249 12.7453 82.1484 12.7162C82.166 12.687 82.1895 12.6579 82.2071 12.6288C82.2306 12.5997 82.2482 12.5648 82.2717 12.5357C82.2893 12.5065 82.3128 12.4833 82.3363 12.4541C82.3598 12.425 82.3833 12.3959 82.4068 12.361C82.4303 12.3377 82.4479 12.3086 82.4714 12.2853C82.4949 12.2562 82.5243 12.2271 82.5478 12.198C82.5713 12.1747 82.5948 12.1514 82.6183 12.1281C82.6476 12.099 82.6711 12.0699 82.7005 12.0408C82.724 12.0175 82.7475 11.9942 82.771 11.9767C82.8003 11.9476 82.8297 11.9185 82.8591 11.8952C82.8826 11.8719 82.9119 11.8486 82.9413 11.8311C82.9707 11.8079 83 11.7787 83.0294 11.7555C83.0881 11.7089 83.1469 11.6681 83.2056 11.6215C83.2056 11.6215 83.2174 11.6157 83.2232 11.6099C83.2526 11.5866 83.282 11.5691 83.3172 11.5517C83.3701 11.5109 83.4288 11.476 83.4875 11.4469C83.5522 11.4061 83.6168 11.3712 83.6814 11.3362C83.7107 11.3188 83.7342 11.3071 83.7636 11.2955C83.8165 11.2664 83.8693 11.2431 83.9281 11.2198C83.9339 11.2198 83.9398 11.214 83.9516 11.2081C84.0044 11.1849 84.0632 11.1616 84.116 11.1383C84.1748 11.115 84.2394 11.0917 84.2981 11.0684C84.4861 11.0044 84.674 10.952 84.8737 10.917C85.0029 10.8879 85.138 10.8704 85.2731 10.8588C85.3906 10.8472 85.5139 10.8413 85.6373 10.8355C85.649 10.8355 85.6608 10.8355 85.6725 10.8355H85.6901C85.6901 10.8355 85.7195 10.8355 85.7371 10.8355C85.7665 10.8355 85.8017 10.8355 85.8311 10.8355C88.0748 10.8821 89.878 12.5648 89.878 14.6259C89.878 16.687 88.0161 18.4163 85.7312 18.4163L85.7371 18.4105Z" fill="#FC63D7"/>
<path d="M85.6432 10.8297C85.5198 10.8297 85.3965 10.8414 85.279 10.853C85.1439 10.8647 85.0088 10.888 84.8796 10.9113C84.6799 10.9462 84.4861 10.9986 84.304 11.0626C84.2394 11.0801 84.1807 11.1034 84.1219 11.1325C84.0632 11.1558 84.0103 11.1791 83.9575 11.2024C83.9516 11.2024 83.9398 11.2082 83.934 11.214C83.8752 11.2373 83.8224 11.2664 83.7695 11.2897C83.7401 11.3014 83.7108 11.3188 83.6873 11.3305C83.6227 11.3654 83.5581 11.4003 83.4935 11.4411C83.4347 11.476 83.376 11.511 83.3231 11.5459C83.2938 11.5634 83.2585 11.5867 83.2291 11.6041C83.2291 11.6041 83.2174 11.6099 83.2115 11.6158C82.2541 12.2912 81.6315 13.3392 81.5963 14.5212H78.9238C78.9238 14.5212 78.9238 14.5095 78.9238 14.5037C78.9238 14.4455 78.9238 14.3872 78.9238 14.329C78.9238 14.2242 78.9356 14.1194 78.9473 14.0204C78.9532 13.9564 78.9649 13.8923 78.9708 13.8283C78.9708 13.805 78.9708 13.7875 78.9826 13.7642C78.9884 13.706 79.0002 13.6536 79.0119 13.5954C79.0413 13.4149 79.0883 13.2344 79.1353 13.0597C79.1529 12.9899 79.1764 12.92 79.1999 12.8559C79.1999 12.8559 79.1999 12.8501 79.1999 12.8443C79.2234 12.7686 79.2528 12.6987 79.2762 12.623C79.3291 12.4775 79.3878 12.3378 79.4525 12.198C79.4936 12.1049 79.5406 12.0117 79.5875 11.9185C79.6287 11.8428 79.6698 11.773 79.7109 11.6973C79.8401 11.4819 79.9811 11.2722 80.1338 11.0685C80.3452 10.7948 80.5802 10.5328 80.8386 10.2883C80.8504 10.2766 80.8621 10.2591 80.8797 10.2475C80.9267 10.2009 80.9737 10.1602 81.0207 10.1194C81.0501 10.0961 81.0736 10.0728 81.1029 10.0495C81.1558 10.0088 81.2028 9.96803 81.2556 9.92727C81.285 9.89816 81.3202 9.87487 81.3496 9.85158C81.4142 9.805 81.473 9.75842 81.5376 9.71184C81.5552 9.69437 81.5728 9.68855 81.5904 9.67691C81.6727 9.61868 81.7549 9.56046 81.843 9.50806C81.9193 9.56628 81.9898 9.6245 82.0662 9.68273C82.1073 9.71184 82.1425 9.73513 82.1837 9.76424C82.26 9.81664 82.3364 9.86905 82.4127 9.91563C82.4891 9.96221 82.5713 10.0088 82.6477 10.0554C82.8944 10.1893 83.1469 10.3115 83.4112 10.4164C83.4465 10.428 83.4817 10.4455 83.517 10.4571C83.6638 10.5095 83.8106 10.5619 83.9575 10.6027C83.9986 10.6143 84.0456 10.626 84.0867 10.6376C84.1219 10.6493 84.1572 10.6551 84.1924 10.6609C84.2159 10.6667 84.2335 10.6725 84.257 10.6784C84.2746 10.6784 84.2923 10.69 84.3099 10.69C84.3686 10.7017 84.4274 10.7133 84.4861 10.7249C84.5155 10.7308 84.5448 10.7366 84.5742 10.7424C84.6036 10.7424 84.6329 10.7541 84.6623 10.7599C84.9736 10.8123 85.2908 10.8414 85.6138 10.8414L85.6432 10.8297Z" fill="url(#paint7_linear_1474_103)"/>
<path d="M91.6644 5.47314C91.6468 6.64927 91.2239 7.73807 90.5132 8.61725C90.4662 8.67547 90.4192 8.7337 90.3664 8.79192C90.337 8.82103 90.3135 8.85015 90.2841 8.87926C90.0844 9.10051 89.8612 9.30429 89.6263 9.49643C89.4031 9.3567 89.174 9.2286 88.9391 9.11215C88.8569 9.0714 88.7805 9.03646 88.6983 9.00153C88.5984 8.95495 88.4986 8.91419 88.3929 8.87926C88.2401 8.82103 88.0816 8.76281 87.923 8.71623C87.8407 8.69294 87.7644 8.66383 87.6822 8.64636C87.6822 8.64636 87.6763 8.64636 87.6704 8.64636C87.5941 8.62889 87.5236 8.6056 87.4472 8.58814C87.2534 8.54156 87.0596 8.50662 86.8599 8.47751C86.8011 8.46587 86.7424 8.46004 86.6778 8.45422C86.6543 8.45422 86.6308 8.4484 86.6073 8.44258C86.5368 8.43093 86.4663 8.42511 86.3958 8.41929C86.2842 8.40764 86.1668 8.40182 86.0552 8.396C85.9906 8.396 85.926 8.396 85.8614 8.396H85.8496C85.9495 8.396 86.0493 8.38435 86.1492 8.37271C86.1961 8.37271 86.2431 8.36106 86.2842 8.35524C86.3019 8.35524 86.3136 8.35524 86.3312 8.34942C86.3724 8.3436 86.4076 8.33777 86.4487 8.32613C86.4546 8.32613 86.4663 8.32613 86.4722 8.32031C86.5133 8.31448 86.5544 8.30284 86.6014 8.29119C86.6895 8.27373 86.7776 8.24461 86.8599 8.2155C86.9069 8.20386 86.948 8.18639 86.995 8.16892C87.0419 8.15146 87.0889 8.13399 87.1359 8.1107C87.1829 8.09323 87.224 8.06994 87.271 8.04665C87.3239 8.02336 87.3767 7.99425 87.4296 7.96514C87.4707 7.94767 87.5059 7.92438 87.5412 7.90109C87.5823 7.8778 87.6234 7.84869 87.6704 7.81958C87.7115 7.79047 87.7526 7.76718 87.7938 7.73224C87.829 7.70895 87.8642 7.67984 87.8995 7.65073C87.9406 7.61579 87.9817 7.58086 88.0228 7.54593C88.6102 7.02191 88.9802 6.29411 88.9978 5.48479H91.6703L91.6644 5.47314Z" fill="url(#paint8_linear_1474_103)"/>
</g>
<defs>
<linearGradient id="paint0_linear_1474_103" x1="-1.80354" y1="23.9942" x2="80.7435" y2="23.9942" gradientUnits="userSpaceOnUse">
<stop stop-color="#00CBEB"/>
<stop offset="0.53" stop-color="#C375FF"/>
<stop offset="1" stop-color="#FC63D7"/>
</linearGradient>
<linearGradient id="paint1_linear_1474_103" x1="-1.80394" y1="13.1646" x2="80.7431" y2="13.1646" gradientUnits="userSpaceOnUse">
<stop stop-color="#00CBEB"/>
<stop offset="0.53" stop-color="#C375FF"/>
<stop offset="1" stop-color="#FC63D7"/>
</linearGradient>
<linearGradient id="paint2_linear_1474_103" x1="-0.000371181" y1="13.3567" x2="80.7435" y2="13.3567" gradientUnits="userSpaceOnUse">
<stop stop-color="#00CBEB"/>
<stop offset="0.53" stop-color="#C375FF"/>
<stop offset="1" stop-color="#FC63D7"/>
</linearGradient>
<linearGradient id="paint3_linear_1474_103" x1="0.000420439" y1="16.2097" x2="80.7443" y2="16.2097" gradientUnits="userSpaceOnUse">
<stop stop-color="#00CBEB"/>
<stop offset="0.53" stop-color="#C375FF"/>
<stop offset="1" stop-color="#FC63D7"/>
</linearGradient>
<linearGradient id="paint4_linear_1474_103" x1="-1.80364" y1="10.2416" x2="80.7434" y2="10.2416" gradientUnits="userSpaceOnUse">
<stop stop-color="#00CBEB"/>
<stop offset="0.53" stop-color="#C375FF"/>
<stop offset="1" stop-color="#FC63D7"/>
</linearGradient>
<linearGradient id="paint5_linear_1474_103" x1="0" y1="13.3392" x2="80.7438" y2="13.3392" gradientUnits="userSpaceOnUse">
<stop stop-color="#00CBEB"/>
<stop offset="0.53" stop-color="#C375FF"/>
<stop offset="1" stop-color="#FC63D7"/>
</linearGradient>
<linearGradient id="paint6_linear_1474_103" x1="80.8379" y1="10.2708" x2="80.8841" y2="10.2708" gradientUnits="userSpaceOnUse">
<stop stop-color="#290571"/>
<stop offset="1" stop-color="#15063B"/>
</linearGradient>
<linearGradient id="paint7_linear_1474_103" x1="80.1925" y1="15.2955" x2="83.6372" y2="9.61515" gradientUnits="userSpaceOnUse">
<stop offset="0.19" stop-color="#FC63D7" stop-opacity="0"/>
<stop offset="1" stop-color="#15063B"/>
</linearGradient>
<linearGradient id="paint8_linear_1474_103" x1="90.29" y1="4.73952" x2="87.2942" y2="10.3044" gradientUnits="userSpaceOnUse">
<stop offset="0.19" stop-color="#FC63D7" stop-opacity="0"/>
<stop offset="1" stop-color="#15063B"/>
</linearGradient>
<clipPath id="clip0_1474_103">
<rect width="92.5555" height="28" fill="white"/>
</clipPath>
</defs>
</svg>
