<svg xmlns="http://www.w3.org/2000/svg" viewBox="0 0 1920 1080"><title>helpware_logo_col</title><g id="color"><path d="M970.71,545.38q20.2,0,34-13.84t13.82-34q0-20.22-13.82-34t-34-13.82a47.86,47.86,0,1,0,0,95.71m-47.85-5.06V639H906.5V436.59m64.2,125.13q-28.53,0-47.85-21.4V639H906.5V436.59l17.83,16.64q19.33-19.91,46.38-19.92,26.74,0,45.47,18.72t18.72,45.48q0,26.16-18.72,45.18t-45.47,19" style="fill:#464442"/><rect x="871.56" y="359.36" width="16.34" height="202.11" style="fill:#464442"/><path d="M1405,440.52l-7.43,14.57a27.74,27.74,0,0,0-8.62-1.18q-13.68,0-22.45,9.2a30.81,30.81,0,0,0-8.76,22v77.27h-16.34V440.82l13.66,11q13.68-14.26,33.89-14.26a41.42,41.42,0,0,1,16.05,3" style="fill:#464442"/><polygon points="1116.78 495.78 1090.03 565.33 1039.51 439.9 1057.03 439.9 1089.74 520.74 1116.78 450.31 1143.83 520.74 1176.53 439.9 1194.06 439.9 1143.53 565.33 1116.78 495.78" style="fill:#464442"/><path d="M1260.77,453.9q-20.22,0-34,13.81t-13.82,34q0,20.22,13.82,34t34,13.82a47.85,47.85,0,1,0,0-95.7M1307.13,546q-19.31,19.91-46.36,19.92-26.16,0-45.18-19t-19-45.17q0-26.76,19-45.48t45.18-18.72q27,0,46.36,19.92L1325,440.82V562.38Z" style="fill:#464442"/><path d="M695.8,481.76q0-14-9.37-23a31.5,31.5,0,0,0-22.73-9.06,32,32,0,0,0-32.1,32.1v76.39H615.24V356h16.35v89.47a46.67,46.67,0,0,1,32.1-12.19q20.51,0,34.48,14t14,34.48v76.39H695.8Z" style="fill:#464442"/><path d="M520.76,498.32l-4.21,4.06v22.25l-13-13L495,515.3a92.68,92.68,0,0,1-36.65,7.43c-47,0-85.3-34.3-85.3-76.46s38.26-76.46,85.3-76.46,85.31,34.3,85.31,76.46c0,19.35-8.13,37.84-22.89,52M458.33,356c-54.73,0-99.1,40.41-99.1,90.24s44.37,90.24,99.1,90.24A106.68,106.68,0,0,0,500.4,528l29.91,29.93V508.25c16.79-16.17,27.11-38,27.11-62,0-49.83-44.37-90.24-99.1-90.24" style="fill:#47c2b4"/><path d="M792.42,452.22a47.82,47.82,0,0,1,47.38,41.43H745a47.81,47.81,0,0,1,47.38-41.43M856.35,500a64,64,0,1,0-5.65,26.2H832.4a47.81,47.81,0,0,1-86.77-16.3H855.51a63.59,63.59,0,0,0,.84-9.9" style="fill:#464442"/><path d="M1464.92,452.22a47.82,47.82,0,0,1,47.38,41.43h-94.76a47.81,47.81,0,0,1,47.38-41.43M1528.85,500a64,64,0,1,0-5.65,26.2H1504.9a47.81,47.81,0,0,1-86.77-16.3H1528a63.59,63.59,0,0,0,.84-9.9" style="fill:#464442"/></g><g id="grey"><path d="M970.71,545.38q20.2,0,34-13.84t13.82-34q0-20.22-13.82-34t-34-13.82a47.86,47.86,0,1,0,0,95.71m-47.85-5.06V639H906.5V436.59m64.2,125.13q-28.53,0-47.85-21.4V639H906.5V436.59l17.83,16.64q19.33-19.91,46.38-19.92,26.74,0,45.47,18.72t18.72,45.48q0,26.16-18.72,45.18t-45.47,19" style="fill:#464442"/><rect x="871.56" y="359.36" width="16.34" height="202.11" style="fill:#464442"/><path d="M1405,440.52l-7.43,14.57a27.74,27.74,0,0,0-8.62-1.18q-13.68,0-22.45,9.2a30.81,30.81,0,0,0-8.76,22v77.27h-16.34V440.82l13.66,11q13.68-14.26,33.89-14.26a41.42,41.42,0,0,1,16.05,3" style="fill:#464442"/><polygon points="1116.78 495.78 1090.03 565.33 1039.51 439.9 1057.03 439.9 1089.74 520.74 1116.78 450.31 1143.83 520.74 1176.53 439.9 1194.06 439.9 1143.53 565.33 1116.78 495.78" style="fill:#464442"/><path d="M1260.77,453.9q-20.22,0-34,13.81t-13.82,34q0,20.22,13.82,34t34,13.82a47.85,47.85,0,1,0,0-95.7M1307.13,546q-19.31,19.91-46.36,19.92-26.16,0-45.18-19t-19-45.17q0-26.76,19-45.48t45.18-18.72q27,0,46.36,19.92L1325,440.82V562.38Z" style="fill:#464442"/><path d="M695.8,481.76q0-14-9.37-23a31.5,31.5,0,0,0-22.73-9.06,32,32,0,0,0-32.1,32.1v76.39H615.24V356h16.35v89.47a46.67,46.67,0,0,1,32.1-12.19q20.51,0,34.48,14t14,34.48v76.39H695.8Z" style="fill:#464442"/><path d="M520.76,498.32l-4.21,4.06v22.25l-13-13L495,515.3a92.68,92.68,0,0,1-36.65,7.43c-47,0-85.3-34.3-85.3-76.46s38.26-76.46,85.3-76.46,85.31,34.3,85.31,76.46c0,19.35-8.13,37.84-22.89,52M458.33,356c-54.73,0-99.1,40.41-99.1,90.24s44.37,90.24,99.1,90.24A106.68,106.68,0,0,0,500.4,528l29.91,29.93V508.25c16.79-16.17,27.11-38,27.11-62,0-49.83-44.37-90.24-99.1-90.24" style="fill:#47c2b4"/><path d="M792.42,452.22a47.82,47.82,0,0,1,47.38,41.43H745a47.81,47.81,0,0,1,47.38-41.43M856.35,500a64,64,0,1,0-5.65,26.2H832.4a47.81,47.81,0,0,1-86.77-16.3H855.51a63.59,63.59,0,0,0,.84-9.9" style="fill:#464442"/><path d="M1464.92,452.22a47.82,47.82,0,0,1,47.38,41.43h-94.76a47.81,47.81,0,0,1,47.38-41.43M1528.85,500a64,64,0,1,0-5.65,26.2H1504.9a47.81,47.81,0,0,1-86.77-16.3H1528a63.59,63.59,0,0,0,.84-9.9" style="fill:#464442"/></g></svg>