<?xml version="1.0" encoding="UTF-8" standalone="no"?>
<svg width="400" height="300" viewBox="0 0 400 300" fill="none" xmlns="http://www.w3.org/2000/svg">
  <!-- Gradient definitions -->
  <defs>
    <radialGradient id="sphereGradient" cx="50%" cy="50%" r="50%" fx="25%" fy="25%">
      <stop offset="0%" stop-color="#6C63FF" stop-opacity="0.8"/>
      <stop offset="50%" stop-color="#4A90E2" stop-opacity="0.6"/>
      <stop offset="100%" stop-color="#50E3C2" stop-opacity="0.4"/>
    </radialGradient>
    <filter id="glow" x="-50%" y="-50%" width="200%" height="200%">
      <feGaussianBlur stdDeviation="10" result="blur"/>
      <feComposite in="SourceGraphic" in2="blur" operator="over"/>
    </filter>
  </defs>
  
  <!-- Background grid -->
  <g opacity="0.2">
    <rect width="400" height="300" fill="#0E0E0E"/>
    <!-- Grid lines -->
    <path d="M0 50 H400 M0 100 H400 M0 150 H400 M0 200 H400 M0 250 H400" stroke="#333" stroke-width="0.5"/>
    <path d="M50 0 V300 M100 0 V300 M150 0 V300 M200 0 V300 M250 0 V300 M300 0 V300 M350 0 V300" stroke="#333" stroke-width="0.5"/>
  </g>
  
  <!-- Main sphere -->
  <circle cx="200" cy="150" r="80" fill="url(#sphereGradient)" filter="url(#glow)"/>
  
  <!-- Network lines -->
  <g opacity="0.4">
    <path d="M200 150 L130 80" stroke="#50E3C2" stroke-width="1"/>
    <path d="M200 150 L250 70" stroke="#4A90E2" stroke-width="1"/>
    <path d="M200 150 L280 130" stroke="#6C63FF" stroke-width="1"/>
    <path d="M200 150 L260 200" stroke="#50E3C2" stroke-width="1"/>
    <path d="M200 150 L150 220" stroke="#4A90E2" stroke-width="1"/>
    <path d="M200 150 L100 180" stroke="#6C63FF" stroke-width="1"/>
  </g>
  
  <!-- Small particles -->
  <circle cx="130" cy="80" r="4" fill="#50E3C2"/>
  <circle cx="250" cy="70" r="4" fill="#4A90E2"/>
  <circle cx="280" cy="130" r="4" fill="#6C63FF"/>
  <circle cx="260" cy="200" r="4" fill="#50E3C2"/>
  <circle cx="150" cy="220" r="4" fill="#4A90E2"/>
  <circle cx="100" cy="180" r="4" fill="#6C63FF"/>
</svg>
