<svg width="328" height="51" viewBox="0 0 328 51" fill="none" xmlns="http://www.w3.org/2000/svg">
<g clip-path="url(#clip0_1_83)">
<path d="M89.5966 30.6234C89.5966 39.6959 83.2587 46.5097 74.5544 46.5097C70.2872 46.5097 66.8885 44.8315 64.5221 41.9482V45.822H57.7184V3.58252H65.0382V18.7244C67.3983 16.1818 70.69 14.6802 74.7243 14.6802C83.4287 14.6802 89.5966 21.5004 89.5966 30.6297V30.6234ZM82.2769 30.6234C82.2769 25.1912 78.5887 21.2039 73.5726 21.2039C68.5564 21.2039 64.7549 25.0146 64.7549 30.6234C64.7549 36.2322 68.3298 40.0429 73.5726 40.0429C78.8153 40.0429 82.2769 36.0555 82.2769 30.6234Z" fill="#FCFCFC"/>
<path d="M145.133 15.3678V45.8155H138.33V41.7146C136.083 44.7177 132.678 46.5095 128.297 46.5095C119.593 46.5095 113.255 39.6894 113.255 30.6232C113.255 21.557 119.593 15.1406 128.297 15.1406C132.678 15.1406 136.076 16.7558 138.33 19.7084V15.3741H145.133V15.3678ZM138.103 30.6232C138.103 25.0207 134.528 21.2037 129.285 21.2037C124.043 21.2037 120.581 25.191 120.581 30.6232C120.581 36.0553 124.269 40.0427 129.285 40.0427C134.302 40.0427 138.103 36.1689 138.103 30.6232Z" fill="#FCFCFC"/>
<path d="M150.785 15.3682H158.105V45.8159H150.785V15.3682Z" fill="#FCFCFC"/>
<path d="M238.98 15.3682L231.025 45.8159H222.377L216.442 23.6268L210.564 45.8159H201.916L193.847 15.3682H201.343L206.586 38.6551L212.351 15.3682H220.533L226.298 38.5415L231.484 15.3682H238.98Z" fill="#FCFCFC"/>
<path d="M271.368 15.3678V45.8155H264.565V41.7146C262.318 44.7177 258.913 46.5095 254.532 46.5095C245.828 46.5095 239.49 39.6894 239.49 30.6232C239.49 21.557 245.828 15.1406 254.532 15.1406C258.913 15.1406 262.311 16.7558 264.565 19.7084V15.3741H271.368V15.3678ZM264.338 30.6232C264.338 25.0207 260.763 21.2037 255.52 21.2037C250.278 21.2037 246.816 25.191 246.816 30.6232C246.816 36.0553 250.504 40.0427 255.52 40.0427C260.537 40.0427 264.338 36.1689 264.338 30.6232Z" fill="#FCFCFC"/>
<path d="M313.304 40.2699C317.452 40.2699 319.642 38.7115 321.026 35.9923L326.792 39.6894C324.488 43.4433 320.454 46.5664 313.071 46.5664C303.385 46.5664 297.047 39.6894 297.047 30.6169C297.047 21.5444 303.907 14.6675 312.612 14.6675C322.178 14.6675 328 22.1816 328 29.9797C328 31.1343 327.943 32.2888 327.83 32.9261H304.253C305.235 37.4938 308.747 40.2635 313.304 40.2635V40.2699ZM320.97 27.7904C320.164 23.2289 317.049 20.4529 312.788 20.4529C308.527 20.4529 305.179 23.1091 304.26 27.7904H320.976H320.97Z" fill="#FCFCFC"/>
<path d="M100.605 15.3682H93.6876V45.8159H100.605V15.3682Z" fill="#FCFCFC"/>
<path d="M104.135 17.0338L100.604 21.5511H112.802V15.3682H107.553C106.219 15.3682 104.96 15.9801 104.135 17.0338Z" fill="#FCFCFC"/>
<path d="M283.95 15.3682H277.033V45.8159H283.95V15.3682Z" fill="#FCFCFC"/>
<path d="M287.487 17.0338L283.956 21.5511H296.153V15.3682H290.904C289.57 15.3682 288.311 15.9801 287.487 17.0338Z" fill="#FCFCFC"/>
<path d="M170.667 15.3682H163.75V45.8159H170.667V15.3682Z" fill="#FCFCFC"/>
<path d="M174.204 17.0333L170.674 21.5506H180.763C182.55 21.5506 184.004 23.0017 184.004 24.7998V45.8218H190.921V24.5475C190.921 19.4813 186.823 15.374 181.77 15.374H177.622C176.288 15.374 175.029 15.986 174.204 17.0396V17.0333Z" fill="#FCFCFC"/>
<path d="M150.785 13.8538L158.105 11.3617V5.58887H150.785V13.8538Z" fill="#FCFCFC"/>
</g>
<g clip-path="url(#clip1_1_83)">
<path d="M31.502 35.3392H41.4021V9.0332H14.1361V18.8597C14.1361 19.6128 14.7528 20.2209 15.5075 20.2209H30.1265V33.978C30.1265 34.7311 30.7432 35.3392 31.4979 35.3392H31.502Z" fill="#FCFCFC"/>
<path d="M41.3981 39.1207L34.9467 49.511C34.6952 49.9137 34.2529 50.1594 33.7782 50.1594H5.10426C2.28434 50.1594 0 47.892 0 45.0931V7.36181C0 6.89465 0.239389 6.46373 0.632961 6.21404L10.4357 0V39.1207H41.4021H41.3981Z" fill="#FCFCFC"/>
</g>
<defs>
<clipPath id="clip0_1_83">
<rect width="270.282" height="42.9903" fill="white" transform="translate(57.7184 3.58252)"/>
</clipPath>
<clipPath id="clip1_1_83">
<rect width="41.3981" height="50.1553" fill="white"/>
</clipPath>
</defs>
</svg>
